%TF.GenerationSoftware,KiCad,Pcbnew,10.0.4*%
%TF.CreationDate,2026-10-03T01:39:55+03:00*%
%TF.ProjectId,dropla-dc,64726f70-6c61-42d6-9463-2e6b69636164,rev?*%
%TF.SameCoordinates,Original*%
%TF.FileFunction,Paste,Top*%
%TF.FilePolarity,Positive*%
%FSLAX46Y46*%
G04 Gerber Fmt 4.6, Leading zero omitted, Abs format (unit mm)*
G04 Created by KiCad (PCBNEW 10.0.4) date 2026-10-03 01:39:55*
%MOMM*%
%LPD*%
G01*
G04 APERTURE LIST*
G04 Aperture macros list*
%AMRoundRect*
0 Rectangle with rounded corners*
0 $1 Rounding radius*
0 $2 $3 $4 $5 $6 $7 $8 $9 X,Y pos of 4 corners*
0 Add a 4 corners polygon primitive as box body*
4,1,4,$2,$3,$4,$5,$6,$7,$8,$9,$2,$3,0*
0 Add four circle primitives for the rounded corners*
1,1,$1+$1,$2,$3*
1,1,$1+$1,$4,$5*
1,1,$1+$1,$6,$7*
1,1,$1+$1,$8,$9*
0 Add four rect primitives between the rounded corners*
20,1,$1+$1,$2,$3,$4,$5,0*
20,1,$1+$1,$4,$5,$6,$7,0*
20,1,$1+$1,$6,$7,$8,$9,0*
20,1,$1+$1,$8,$9,$2,$3,0*%
G04 Aperture macros list end*
%ADD10RoundRect,0.200000X-0.275000X0.200000X-0.275000X-0.200000X0.275000X-0.200000X0.275000X0.200000X0*%
%ADD11RoundRect,0.150000X-0.825000X-0.150000X0.825000X-0.150000X0.825000X0.150000X-0.825000X0.150000X0*%
%ADD12RoundRect,0.240000X-0.240000X-0.385000X0.240000X-0.385000X0.240000X0.385000X-0.240000X0.385000X0*%
%ADD13RoundRect,0.150000X0.825000X0.150000X-0.825000X0.150000X-0.825000X-0.150000X0.825000X-0.150000X0*%
%ADD14RoundRect,0.240000X0.240000X0.385000X-0.240000X0.385000X-0.240000X-0.385000X0.240000X-0.385000X0*%
%ADD15RoundRect,0.250000X0.650000X-1.000000X0.650000X1.000000X-0.650000X1.000000X-0.650000X-1.000000X0*%
%ADD16RoundRect,0.225000X0.250000X-0.225000X0.250000X0.225000X-0.250000X0.225000X-0.250000X-0.225000X0*%
%ADD17RoundRect,0.225000X0.225000X0.250000X-0.225000X0.250000X-0.225000X-0.250000X0.225000X-0.250000X0*%
%ADD18RoundRect,0.200000X0.275000X-0.200000X0.275000X0.200000X-0.275000X0.200000X-0.275000X-0.200000X0*%
%ADD19RoundRect,0.225000X-0.250000X0.225000X-0.250000X-0.225000X0.250000X-0.225000X0.250000X0.225000X0*%
%ADD20RoundRect,0.250000X0.650000X-0.325000X0.650000X0.325000X-0.650000X0.325000X-0.650000X-0.325000X0*%
%ADD21RoundRect,0.250000X-0.540000X-3.000000X0.540000X-3.000000X0.540000X3.000000X-0.540000X3.000000X0*%
%ADD22RoundRect,0.225000X-0.225000X-0.250000X0.225000X-0.250000X0.225000X0.250000X-0.225000X0.250000X0*%
%ADD23RoundRect,0.200000X-0.200000X-0.275000X0.200000X-0.275000X0.200000X0.275000X-0.200000X0.275000X0*%
%ADD24RoundRect,0.200000X0.200000X0.275000X-0.200000X0.275000X-0.200000X-0.275000X0.200000X-0.275000X0*%
%ADD25RoundRect,0.250000X-1.000000X-0.650000X1.000000X-0.650000X1.000000X0.650000X-1.000000X0.650000X0*%
%ADD26RoundRect,0.250000X-0.650000X1.000000X-0.650000X-1.000000X0.650000X-1.000000X0.650000X1.000000X0*%
%ADD27RoundRect,0.250000X-0.650000X0.325000X-0.650000X-0.325000X0.650000X-0.325000X0.650000X0.325000X0*%
%ADD28RoundRect,0.250000X0.540000X3.000000X-0.540000X3.000000X-0.540000X-3.000000X0.540000X-3.000000X0*%
%ADD29RoundRect,0.250000X-0.325000X-1.100000X0.325000X-1.100000X0.325000X1.100000X-0.325000X1.100000X0*%
%ADD30RoundRect,0.250000X0.325000X1.100000X-0.325000X1.100000X-0.325000X-1.100000X0.325000X-1.100000X0*%
%ADD31RoundRect,0.250000X1.000000X0.650000X-1.000000X0.650000X-1.000000X-0.650000X1.000000X-0.650000X0*%
%ADD32RoundRect,0.250000X1.375000X1.750000X-1.375000X1.750000X-1.375000X-1.750000X1.375000X-1.750000X0*%
%ADD33RoundRect,0.250000X1.000000X-1.400000X1.000000X1.400000X-1.000000X1.400000X-1.000000X-1.400000X0*%
G04 APERTURE END LIST*
D10*
%TO.C,R14*%
X123400000Y-86425000D03*
X123400000Y-84775000D03*
%TD*%
D11*
%TO.C,U1*%
X109400000Y-82060000D03*
X109400000Y-83330000D03*
X109400000Y-84600000D03*
X109400000Y-85870000D03*
X104450000Y-85870000D03*
X104450000Y-84600000D03*
X104450000Y-83330000D03*
X104450000Y-82060000D03*
D12*
X107495000Y-84715000D03*
X107495000Y-83215000D03*
X106355000Y-84715000D03*
X106355000Y-83215000D03*
%TD*%
D13*
%TO.C,U3*%
X101150000Y-100505000D03*
X101150000Y-99235000D03*
X101150000Y-97965000D03*
X101150000Y-96695000D03*
X106100000Y-96695000D03*
X106100000Y-97965000D03*
X106100000Y-99235000D03*
X106100000Y-100505000D03*
D14*
X103055000Y-97850000D03*
X103055000Y-99350000D03*
X104195000Y-97850000D03*
X104195000Y-99350000D03*
%TD*%
D15*
%TO.C,D4*%
X112200000Y-96400000D03*
X112200000Y-92400000D03*
%TD*%
D16*
%TO.C,C26*%
X124475000Y-77375000D03*
X124475000Y-75825000D03*
%TD*%
D10*
%TO.C,R6*%
X120200000Y-84775000D03*
X120200000Y-86425000D03*
%TD*%
D17*
%TO.C,C21*%
X113075000Y-82105000D03*
X111525000Y-82105000D03*
%TD*%
D15*
%TO.C,D5*%
X131200000Y-97000000D03*
X131200000Y-93000000D03*
%TD*%
D18*
%TO.C,R8*%
X128600000Y-96225000D03*
X128600000Y-94575000D03*
%TD*%
%TO.C,R15*%
X106100000Y-95025000D03*
X106100000Y-93375000D03*
%TD*%
D10*
%TO.C,R27*%
X104000000Y-93375000D03*
X104000000Y-95025000D03*
%TD*%
D19*
%TO.C,C28*%
X123000000Y-103325000D03*
X123000000Y-104875000D03*
%TD*%
D16*
%TO.C,C20*%
X118000000Y-99275000D03*
X118000000Y-97725000D03*
%TD*%
D20*
%TO.C,C39*%
X113700000Y-105275000D03*
X113700000Y-102325000D03*
%TD*%
D21*
%TO.C,L4*%
X117540000Y-110000000D03*
X122060000Y-110000000D03*
%TD*%
D22*
%TO.C,C24*%
X116325000Y-101200000D03*
X117875000Y-101200000D03*
%TD*%
D12*
%TO.C,U2*%
X125580000Y-80550000D03*
X125580000Y-82050000D03*
X126720000Y-80550000D03*
X126720000Y-82050000D03*
D11*
X123675000Y-79395000D03*
X123675000Y-80665000D03*
X123675000Y-81935000D03*
X123675000Y-83205000D03*
X128625000Y-83205000D03*
X128625000Y-81935000D03*
X128625000Y-80665000D03*
X128625000Y-79395000D03*
%TD*%
D23*
%TO.C,R23*%
X100550000Y-93400000D03*
X102200000Y-93400000D03*
%TD*%
D20*
%TO.C,C37*%
X106800000Y-105275000D03*
X106800000Y-102325000D03*
%TD*%
D24*
%TO.C,R22*%
X129225000Y-86500000D03*
X127575000Y-86500000D03*
%TD*%
D16*
%TO.C,C10*%
X121800000Y-86375000D03*
X121800000Y-84825000D03*
%TD*%
D10*
%TO.C,R13*%
X104500000Y-87475000D03*
X104500000Y-89125000D03*
%TD*%
D24*
%TO.C,R19*%
X102200000Y-95100000D03*
X100550000Y-95100000D03*
%TD*%
D23*
%TO.C,R10*%
X130675000Y-84800000D03*
X132325000Y-84800000D03*
%TD*%
D25*
%TO.C,D9*%
X116600000Y-104000000D03*
X120600000Y-104000000D03*
%TD*%
D26*
%TO.C,D2*%
X98400000Y-86600000D03*
X98400000Y-90600000D03*
%TD*%
D22*
%TO.C,C23*%
X97425000Y-100400000D03*
X98975000Y-100400000D03*
%TD*%
D23*
%TO.C,R2*%
X120075000Y-83000000D03*
X121725000Y-83000000D03*
%TD*%
D27*
%TO.C,C33*%
X122400000Y-74725000D03*
X122400000Y-77675000D03*
%TD*%
D23*
%TO.C,R24*%
X119575000Y-94200000D03*
X121225000Y-94200000D03*
%TD*%
D16*
%TO.C,C16*%
X116100000Y-99275000D03*
X116100000Y-97725000D03*
%TD*%
D27*
%TO.C,C32*%
X101100000Y-77425000D03*
X101100000Y-80375000D03*
%TD*%
D23*
%TO.C,R17*%
X108325000Y-87505000D03*
X109975000Y-87505000D03*
%TD*%
D20*
%TO.C,C38*%
X111400000Y-105275000D03*
X111400000Y-102325000D03*
%TD*%
D16*
%TO.C,C15*%
X97300000Y-98475000D03*
X97300000Y-96925000D03*
%TD*%
D24*
%TO.C,R21*%
X109975000Y-89300000D03*
X108325000Y-89300000D03*
%TD*%
D18*
%TO.C,R25*%
X106400000Y-89125000D03*
X106400000Y-87475000D03*
%TD*%
D28*
%TO.C,L2*%
X127860000Y-70000000D03*
X123340000Y-70000000D03*
%TD*%
D21*
%TO.C,L3*%
X100540000Y-110000000D03*
X105060000Y-110000000D03*
%TD*%
D29*
%TO.C,C4*%
X129025000Y-100500000D03*
X131975000Y-100500000D03*
%TD*%
D10*
%TO.C,R5*%
X101300000Y-87475000D03*
X101300000Y-89125000D03*
%TD*%
D27*
%TO.C,C34*%
X117800000Y-74725000D03*
X117800000Y-77675000D03*
%TD*%
D20*
%TO.C,C40*%
X109100000Y-105275000D03*
X109100000Y-102325000D03*
%TD*%
D27*
%TO.C,C31*%
X96500000Y-77425000D03*
X96500000Y-80375000D03*
%TD*%
D18*
%TO.C,R7*%
X109600000Y-95025000D03*
X109600000Y-93375000D03*
%TD*%
D30*
%TO.C,C1*%
X100475000Y-83200000D03*
X97525000Y-83200000D03*
%TD*%
D23*
%TO.C,R9*%
X111475000Y-87400000D03*
X113125000Y-87400000D03*
%TD*%
D19*
%TO.C,C27*%
X104700000Y-102825000D03*
X104700000Y-104375000D03*
%TD*%
D20*
%TO.C,C42*%
X129700000Y-106075000D03*
X129700000Y-103125000D03*
%TD*%
D24*
%TO.C,R11*%
X98925000Y-95400000D03*
X97275000Y-95400000D03*
%TD*%
D16*
%TO.C,C25*%
X105500000Y-79975000D03*
X105500000Y-78425000D03*
%TD*%
D29*
%TO.C,C3*%
X110125000Y-99700000D03*
X113075000Y-99700000D03*
%TD*%
D19*
%TO.C,C12*%
X127000000Y-94625000D03*
X127000000Y-96175000D03*
%TD*%
D23*
%TO.C,R1*%
X100875000Y-85600000D03*
X102525000Y-85600000D03*
%TD*%
D19*
%TO.C,C5*%
X102300000Y-82225000D03*
X102300000Y-83775000D03*
%TD*%
D31*
%TO.C,D7*%
X130875000Y-76800000D03*
X126875000Y-76800000D03*
%TD*%
D24*
%TO.C,R12*%
X117925000Y-96225000D03*
X116275000Y-96225000D03*
%TD*%
D14*
%TO.C,U4*%
X123120000Y-100175000D03*
X123120000Y-98675000D03*
X121980000Y-100175000D03*
X121980000Y-98675000D03*
D13*
X125025000Y-101330000D03*
X125025000Y-100060000D03*
X125025000Y-98790000D03*
X125025000Y-97520000D03*
X120075000Y-97520000D03*
X120075000Y-98790000D03*
X120075000Y-100060000D03*
X120075000Y-101330000D03*
%TD*%
D19*
%TO.C,C18*%
X130700000Y-81625000D03*
X130700000Y-83175000D03*
%TD*%
D32*
%TO.C,L1*%
X111625000Y-71200000D03*
X102375000Y-71200000D03*
%TD*%
D27*
%TO.C,C30*%
X98800000Y-77425000D03*
X98800000Y-80375000D03*
%TD*%
D16*
%TO.C,C7*%
X108300000Y-100475000D03*
X108300000Y-98925000D03*
%TD*%
D31*
%TO.C,D6*%
X111900000Y-79400000D03*
X107900000Y-79400000D03*
%TD*%
D19*
%TO.C,C13*%
X113200000Y-84225000D03*
X113200000Y-85775000D03*
%TD*%
D23*
%TO.C,R18*%
X127575000Y-84800000D03*
X129225000Y-84800000D03*
%TD*%
D20*
%TO.C,C43*%
X132000000Y-106075000D03*
X132000000Y-103125000D03*
%TD*%
D27*
%TO.C,C35*%
X115500000Y-74725000D03*
X115500000Y-77675000D03*
%TD*%
D25*
%TO.C,D8*%
X98300000Y-103200000D03*
X102300000Y-103200000D03*
%TD*%
D10*
%TO.C,R28*%
X123100000Y-94175000D03*
X123100000Y-95825000D03*
%TD*%
D16*
%TO.C,C19*%
X98900000Y-98475000D03*
X98900000Y-96925000D03*
%TD*%
D18*
%TO.C,R16*%
X125000000Y-95925000D03*
X125000000Y-94275000D03*
%TD*%
D33*
%TO.C,D1*%
X121000000Y-90400000D03*
X127800000Y-90400000D03*
%TD*%
D26*
%TO.C,D3*%
X117700000Y-83600000D03*
X117700000Y-87600000D03*
%TD*%
D16*
%TO.C,C8*%
X127200000Y-101400000D03*
X127200000Y-99850000D03*
%TD*%
D19*
%TO.C,C17*%
X111500000Y-84225000D03*
X111500000Y-85775000D03*
%TD*%
D27*
%TO.C,C29*%
X103400000Y-77425000D03*
X103400000Y-80375000D03*
%TD*%
D24*
%TO.C,R20*%
X121225000Y-95900000D03*
X119575000Y-95900000D03*
%TD*%
D20*
%TO.C,C41*%
X127400000Y-106075000D03*
X127400000Y-103125000D03*
%TD*%
D17*
%TO.C,C22*%
X132375000Y-79500000D03*
X130825000Y-79500000D03*
%TD*%
D24*
%TO.C,R3*%
X109825000Y-97300000D03*
X108175000Y-97300000D03*
%TD*%
D16*
%TO.C,C9*%
X102900000Y-89075000D03*
X102900000Y-87525000D03*
%TD*%
D19*
%TO.C,C11*%
X107900000Y-93425000D03*
X107900000Y-94975000D03*
%TD*%
%TO.C,C14*%
X132400000Y-81625000D03*
X132400000Y-83175000D03*
%TD*%
D24*
%TO.C,R4*%
X128700000Y-97900000D03*
X127050000Y-97900000D03*
%TD*%
D27*
%TO.C,C36*%
X120100000Y-74725000D03*
X120100000Y-77675000D03*
%TD*%
D19*
%TO.C,C6*%
X121500000Y-79425000D03*
X121500000Y-80975000D03*
%TD*%
D20*
%TO.C,C44*%
X125100000Y-106075000D03*
X125100000Y-103125000D03*
%TD*%
D18*
%TO.C,R26*%
X125200000Y-86425000D03*
X125200000Y-84775000D03*
%TD*%
D30*
%TO.C,C2*%
X119575000Y-80300000D03*
X116625000Y-80300000D03*
%TD*%
M02*
