M48
; DRILL file KiCad 10.0.4 date 2026-10-03T01:39:53
; FORMAT={-:-/ absolute / metric / decimal}
; #@! TF.CreationDate,2026-10-03T01:39:53+03:00
; #@! TF.GenerationSoftware,Kicad,Pcbnew,10.0.4
; #@! TF.FileFunction,MixedPlating,1,2
FMAT,2
METRIC
; #@! TA.AperFunction,Plated,PTH,ViaDrill
T1C0.300
; #@! TA.AperFunction,Plated,PTH,ComponentDrill
T2C0.300
; #@! TA.AperFunction,Plated,PTH,ComponentDrill
T3C1.100
; #@! TA.AperFunction,NonPlated,NPTH,ComponentDrill
T4C3.200
%
G90
G05
T1
X96.4Y-83.2
X98.1Y-99.8
X98.8Y-83.2
X102.7Y-104.8
X102.8Y-101.8
X102.9Y-95.1
X104.7Y-105.3
X104.8Y-100.8
X105.5Y-77.4
X105.85Y-81.8
X107.5Y-87.5
X107.9Y-78.0
X107.9Y-80.8
X111.9Y-99.7
X112.4Y-82.8
X114.3Y-99.7
X115.4Y-80.3
X117.0Y-100.6
X117.8Y-80.3
X120.6Y-105.4
X121.1Y-102.6
X122.0Y-95.9
X123.0Y-105.8
X123.6Y-101.6
X124.5Y-74.8
X125.1Y-79.1
X126.6Y-84.8
X126.9Y-75.3
X126.9Y-78.2
X130.9Y-100.5
X131.7Y-80.2
X133.1Y-100.5
T2
X102.975Y-97.6
X102.975Y-98.6
X102.975Y-99.6
X104.275Y-97.6
X104.275Y-98.6
X104.275Y-99.6
X106.275Y-82.965
X106.275Y-83.965
X106.275Y-84.965
X107.575Y-82.965
X107.575Y-83.965
X107.575Y-84.965
X121.9Y-98.425
X121.9Y-99.425
X121.9Y-100.425
X123.2Y-98.425
X123.2Y-99.425
X123.2Y-100.425
X125.5Y-80.3
X125.5Y-81.3
X125.5Y-82.3
X126.8Y-80.3
X126.8Y-81.3
X126.8Y-82.3
T3
X96.5Y-71.4
X98.4Y-74.8
X109.3Y-109.0
X111.7Y-112.0
X114.8Y-90.2
X116.7Y-93.3
X116.9Y-67.6
X119.2Y-70.8
X126.0Y-109.6
X127.6Y-113.0
T4
X96.0Y-67.0
X96.0Y-113.0
X131.8Y-112.8
X132.0Y-67.0
M30
